<?xml version="1.0" standalone="no"?>
<!DOCTYPE svg PUBLIC "-//W3C//DTD SVG 20010904//EN"
 "http://www.w3.org/TR/2001/REC-SVG-20010904/DTD/svg10.dtd">
<svg version="1.0" xmlns="http://www.w3.org/2000/svg"
 width="512.000000pt" height="512.000000pt" viewBox="0 0 512.000000 512.000000"
 preserveAspectRatio="xMidYMid meet">

<g transform="translate(0.000000,512.000000) scale(0.100000,-0.100000)"
fill="#000000" stroke="none">
<path d="M2510 4946 c-55 -20 -2012 -1154 -2042 -1183 -17 -16 -31 -44 -37
-75 -15 -69 -15 -2188 0 -2257 7 -36 20 -58 42 -78 43 -38 2011 -1173 2053
-1185 21 -5 47 -5 69 1 43 12 2008 1146 2052 1184 23 20 35 42 43 80 7 36 10
394 8 1157 -3 1230 2 1139 -70 1193 -58 43 -1997 1158 -2031 1168 -40 11 -44
11 -87 -5z m872 -802 c452 -262 827 -480 831 -484 6 -5 -466 -285 -564 -334
-13 -6 -217 108 -843 470 -454 263 -826 481 -826 484 0 3 129 80 288 172 158
91 288 167 289 167 0 1 372 -213 825 -475z m-878 -536 c439 -255 798 -467 798
-473 -1 -16 -735 -436 -751 -430 -26 10 -1650 950 -1650 955 0 3 170 102 377
221 357 205 378 216 402 203 14 -7 384 -221 824 -476z m-901 -723 l797 -460 0
-913 c0 -503 -4 -912 -8 -910 -5 2 -378 217 -830 478 l-821 475 -1 913 0 912
34 -17 c18 -10 391 -225 829 -478z m2777 -418 l0 -913 -821 -474 c-452 -261
-826 -476 -830 -478 -5 -2 -9 401 -9 910 l0 913 369 213 c203 116 372 212 375
212 2 0 6 -141 8 -312 3 -292 4 -315 23 -347 66 -112 221 -112 277 0 16 31 18
73 18 441 l0 406 293 170 c160 94 293 171 295 171 1 1 2 -410 2 -912z"/>
</g>
</svg>
